# xmcd CD database file
#
# Track frame offsets:
#	150
#	27587
#	50155
#	73882
#	93562
#	112532
#	135772
#	154287
#	169465
#	184167
#	198302
#
# Disc length: 2922 seconds
#
# Revision: 2
# Processed by: cddbd v1.5PL3 Copyright (c) Steve Scherf et al.
# Submitted via: CDex 1.50beta9
#
DISCID=9a0b680b
DTITLE=YO-KING - IT'S MY ROCK'N'ROLL
DYEAR=2003
DGENRE=Rock and Roll
TTITLE0=死ぬまで遊ぶ
TTITLE1=心の穴につぎはぎを
TTITLE2=大人だから夢を見る
TTITLE3=HEY！みんな元気かい？
TTITLE4=うだつ248
TTITLE5=響
TTITLE6=ずっと穴を掘り続けている
TTITLE7=ハリボテROCK
TTITLE8=I WANT YOU
TTITLE9=生ゴミROCK
TTITLE10=ダムの底
EXTD=YEAR: 2003
EXTT0=
EXTT1=
EXTT2=
EXTT3=
EXTT4=
EXTT5=
EXTT6=
EXTT7=
EXTT8=
EXTT9=
EXTT10=
PLAYORDER=
